<?xml version="1.0" encoding="utf-8"?>
<!-- Generator: Adobe Illustrator 16.0.3, SVG Export Plug-In . SVG Version: 6.00 Build 0)  -->
<!DOCTYPE svg PUBLIC "-//W3C//DTD SVG 1.1//EN" "http://www.w3.org/Graphics/SVG/1.1/DTD/svg11.dtd">
<svg version="1.1" id="Layer_1" xmlns="http://www.w3.org/2000/svg" xmlns:xlink="http://www.w3.org/1999/xlink" x="0px" y="0px"
	 viewBox="0 0 382.909 69.438" enable-background="new 0 0 382.909 69.438"
	 xml:space="preserve">
<g fill="#ffffff">
	<path d="M5.62,52.348c-2.789-1.779-4.628-4.218-5.516-7.31c-0.236-0.981-0.071-1.849,0.49-2.6c0.563-0.747,1.336-1.122,2.319-1.122
		H9.8c1.171,0,2.061,0.585,2.67,1.756c0.327,0.795,0.854,1.381,1.582,1.756c0.725,0.375,1.556,0.561,2.495,0.561
		c0.983,0,1.849-0.242,2.6-0.734c0.749-0.492,1.124-1.23,1.124-2.216c0-1.077-0.622-1.849-1.863-2.317
		c-1.241-0.468-2.799-0.843-4.672-1.126c-2.014-0.278-4.064-0.771-6.149-1.473s-3.853-1.853-5.304-3.443
		c-1.453-1.595-2.178-3.911-2.178-6.959c0-3.839,1.485-6.886,4.46-9.134c2.975-2.249,6.874-3.371,11.7-3.371
		c4.028,0,7.378,0.808,10.049,2.422c2.67,1.619,4.472,3.831,5.411,6.641c0.281,0.939,0.127,1.792-0.458,2.566
		c-0.585,0.771-1.368,1.158-2.353,1.158h-6.464c-1.125,0-2.014-0.536-2.67-1.614c-0.702-1.268-1.921-1.897-3.653-1.897
		c-2.343,0.094-3.514,1.006-3.514,2.741c0,1.078,0.62,1.824,1.861,2.248c1.241,0.42,2.799,0.771,4.674,1.054
		c0.093,0.045,0.186,0.068,0.28,0.068c2.061,0.327,4.133,0.819,6.218,1.478c2.084,0.654,3.84,1.769,5.27,3.338
		c1.429,1.57,2.143,3.924,2.143,7.06c0,3.984-1.534,7.169-4.602,9.559c-3.069,2.386-7.11,3.58-12.121,3.58
		C11.978,55.016,8.405,54.128,5.62,52.348z"/>
	<path d="M83.299,51.714c-0.609,1.36-1.546,2.039-2.812,2.039h-6.464c-1.17,0-2.063-0.586-2.67-1.756l-4.216-9.417
		c-0.561-1.122-1.404-1.688-2.529-1.688c-1.124,0-1.968,0.565-2.531,1.688l-4.075,9.417c-0.609,1.17-1.5,1.756-2.67,1.756h-6.464
		c-1.266,0-2.202-0.654-2.812-1.966L35.589,19.673c-0.281-0.984-0.142-1.873,0.421-2.668c0.561-0.799,1.334-1.194,2.319-1.194h7.518
		c1.266,0,2.202,0.702,2.812,2.106l3.021,10.612c0.466,1.263,1.288,1.929,2.458,2.002c1.17,0.068,2.084-0.456,2.741-1.582
		l3.021-9.627c0.985-2.249,2.529-3.375,4.638-3.375c2.061,0,3.584,1.103,4.567,3.306l3.443,9.979
		c0.656,1.171,1.568,1.707,2.741,1.614c1.17-0.093,1.99-0.771,2.458-2.038l3.021-10.891c0.563-1.404,1.5-2.106,2.811-2.106h7.167
		c0.985,0,1.758,0.383,2.319,1.158c0.563,0.771,0.702,1.65,0.422,2.636L83.299,51.714z"/>
	<path d="M137.052,36.396c-0.048,0.424-0.224,0.774-0.527,1.053c-0.307,0.283-0.668,0.424-1.09,0.424h-24.523
		c-0.561,0-1.007,0.246-1.334,0.739c-0.329,0.488-0.375,1.017-0.142,1.578c1.358,2.857,3.7,4.286,7.027,4.286
		c2.622,0,4.707-0.888,6.252-2.668c0.468-0.564,1.054-0.844,1.758-0.844h9.486c0.607,0,1.063,0.234,1.371,0.703
		c0.303,0.468,0.339,0.984,0.104,1.546c-1.641,3.701-4.135,6.591-7.483,8.678c-3.35,2.083-7.179,3.124-11.488,3.124
		c-5.903,0-10.812-1.929-14.721-5.796c-3.913-3.863-5.869-8.679-5.869-14.438c0-5.809,1.943-10.619,5.833-14.442
		c3.889-3.814,8.807-5.724,14.757-5.724c6.136,0,11.125,1.909,14.965,5.724c3.841,3.823,5.762,8.517,5.762,14.092
		C137.191,35.084,137.145,35.742,137.052,36.396z M121.734,30.636c0.656,0,1.134-0.282,1.438-0.844
		c0.305-0.561,0.293-1.126-0.034-1.687c-1.5-2.2-3.724-3.302-6.674-3.302c-2.857,0-4.989,1.102-6.396,3.302
		c-0.327,0.609-0.339,1.183-0.034,1.724c0.305,0.536,0.783,0.807,1.441,0.807H121.734z"/>
	<path d="M183.356,50.802c0,0.796-0.281,1.485-0.842,2.071c-0.563,0.589-1.266,0.88-2.109,0.88h-6.184
		c-0.609,0-1.053-0.327-1.334-0.985c-0.236-0.42-0.563-0.702-0.985-0.844c-0.422-0.137-0.819-0.093-1.195,0.142
		c-2.951,1.97-6.301,2.95-10.046,2.95c-5.811,0-10.576-1.904-14.299-5.724c-3.726-3.818-5.586-8.653-5.586-14.511
		c0-5.901,1.861-10.74,5.586-14.511c3.724-3.771,8.489-5.655,14.299-5.655c3.746,0,7.072,0.961,9.978,2.878
		c0.466,0.282,0.948,0.355,1.439,0.214c0.492-0.141,0.855-0.443,1.09-0.916c0.375-0.654,0.89-0.98,1.546-0.98h5.691
		c0.843,0,1.546,0.278,2.109,0.844c0.561,0.561,0.842,1.238,0.842,2.034V50.802z M168.496,28.598
		c-1.617-1.639-3.643-2.458-6.079-2.458s-4.462,0.819-6.077,2.458c-1.617,1.639-2.426,3.701-2.426,6.184s0.809,4.545,2.426,6.184
		c1.615,1.639,3.641,2.459,6.077,2.459s4.462-0.82,6.079-2.459s2.424-3.701,2.424-6.184S170.113,30.236,168.496,28.598z"/>
	<path d="M211.954,42.297c1.356,0,2.503,0.473,3.443,1.409c0.937,0.937,1.404,2.059,1.404,3.37v1.897
		c0,1.312-0.468,2.438-1.404,3.374c-0.94,0.937-2.087,1.405-3.443,1.405h-4.146c-4.218,0-7.52-1.207-9.909-3.621
		c-2.39-2.409-3.584-5.724-3.584-9.941V27.754c0-0.517-0.186-0.948-0.562-1.3c-0.375-0.351-0.819-0.549-1.336-0.598
		c-1.122,0-2.071-0.387-2.844-1.158c-0.773-0.774-1.16-1.724-1.16-2.846v-1.97c0-1.122,0.387-2.083,1.16-2.878
		c0.773-0.799,1.722-1.194,2.844-1.194h0.352c0.937,0,1.768-0.283,2.494-0.844c0.727-0.562,1.207-1.313,1.441-2.248l0.633-2.673
		c0.234-0.937,0.715-1.687,1.441-2.248c0.723-0.562,1.555-0.844,2.494-0.844h2.035c1.126,0,2.087,0.399,2.882,1.195
		c0.795,0.799,1.194,1.735,1.194,2.813v3.37c0,0.282,0.081,0.561,0.246,0.844c0.166,0.282,0.412,0.468,0.739,0.561
		c0.186,0.049,0.375,0.073,0.561,0.073h2.883c1.122,0,2.082,0.396,2.882,1.194c0.795,0.795,1.19,1.756,1.19,2.878v2.111
		c0,1.078-0.384,1.99-1.158,2.736c-0.771,0.751-1.699,1.126-2.773,1.126h-2.74c-0.469,0-0.88,0.178-1.231,0.529
		c-0.352,0.351-0.549,0.759-0.598,1.227v10.329c0,2.717,1.453,4.17,4.355,4.355H211.954z"/>
	<path d="M227.095,52.348c-2.789-1.779-4.626-4.218-5.514-7.31c-0.238-0.981-0.072-1.849,0.488-2.6
		c0.565-0.747,1.336-1.122,2.321-1.122h6.886c1.171,0,2.059,0.585,2.669,1.756c0.326,0.795,0.855,1.381,1.582,1.756
		s1.558,0.561,2.494,0.561c0.985,0,1.849-0.242,2.6-0.734s1.126-1.23,1.126-2.216c0-1.077-0.621-1.849-1.864-2.317
		c-1.239-0.468-2.798-0.843-4.671-1.126c-2.014-0.278-4.064-0.771-6.151-1.473c-2.083-0.702-3.851-1.853-5.304-3.443
		c-1.453-1.595-2.176-3.911-2.176-6.959c0-3.839,1.485-6.886,4.46-9.134c2.976-2.249,6.875-3.371,11.698-3.371
		c4.028,0,7.378,0.808,10.051,2.422c2.668,1.619,4.472,3.831,5.408,6.641c0.283,0.939,0.13,1.792-0.456,2.566
		c-0.585,0.771-1.368,1.158-2.354,1.158h-6.466c-1.122,0-2.015-0.536-2.668-1.614c-0.702-1.268-1.921-1.897-3.653-1.897
		c-2.345,0.094-3.516,1.006-3.516,2.741c0,1.078,0.622,1.824,1.861,2.248c1.243,0.42,2.801,0.771,4.674,1.054
		c0.093,0.045,0.186,0.068,0.282,0.068c2.059,0.327,4.134,0.819,6.217,1.478c2.087,0.654,3.843,1.769,5.271,3.338
		c1.429,1.57,2.144,3.924,2.144,7.06c0,3.984-1.534,7.169-4.602,9.559c-3.072,2.386-7.112,3.58-12.122,3.58
		C233.452,55.016,229.88,54.128,227.095,52.348z"/>
	<path d="M298.241,50.871c0,0.799-0.282,1.477-0.844,2.038c-0.562,0.561-1.243,0.844-2.038,0.844h-7.237
		c-0.796,0-1.489-0.283-2.075-0.844c-0.585-0.562-0.876-1.239-0.876-2.038v-18.41c0.142-4.4-1.501-6.604-4.92-6.604
		c-4.263,0.234-6.394,2.79-6.394,7.657v17.357c0,0.799-0.291,1.477-0.876,2.038c-0.59,0.561-1.28,0.844-2.075,0.844h-7.237
		c-0.795,0-1.478-0.283-2.038-0.844c-0.562-0.562-0.844-1.239-0.844-2.038V5.057c0-0.795,0.282-1.484,0.844-2.07
		c0.561-0.585,1.243-0.88,2.038-0.88h7.237c0.795,0,1.485,0.295,2.075,0.88c0.585,0.586,0.876,1.275,0.876,2.07v8.154
		c0,1.029,0.411,1.836,1.23,2.422c0.819,0.585,1.72,0.694,2.705,0.314c1.965-0.84,4.028-1.264,6.184-1.264
		c4.355,0,7.822,1.478,10.397,4.429c2.575,2.95,3.867,6.886,3.867,11.802V50.871z"/>
	<path d="M316.51,15.811c0.795,0,1.474,0.29,2.039,0.876c0.561,0.589,0.839,1.279,0.839,2.074v32.11
		c0,0.799-0.278,1.477-0.839,2.038c-0.565,0.561-1.244,0.844-2.039,0.844h-7.237c-0.799,0-1.478-0.283-2.038-0.844
		c-0.562-0.562-0.844-1.239-0.844-2.038v-32.11c0-0.795,0.282-1.485,0.844-2.074c0.561-0.586,1.239-0.876,2.038-0.876H316.51z
		 M316.438,0c0.795,0,1.478,0.282,2.038,0.843c0.562,0.562,0.844,1.239,0.844,2.039v5.268c0,0.799-0.282,1.489-0.844,2.074
		c-0.561,0.585-1.243,0.876-2.038,0.876h-7.096c-0.796,0-1.474-0.291-2.039-0.876c-0.561-0.585-0.844-1.275-0.844-2.074V2.882
		c0-0.8,0.283-1.478,0.844-2.039C307.868,0.282,308.546,0,309.342,0H316.438z"/>
	<path d="M351.36,24.662c0,0.844-0.282,1.546-0.844,2.107c-0.561,0.564-1.263,0.843-2.106,0.843h-2.107
		c-2.345,0-4.032,0.541-5.062,1.619c-1.029,1.077-1.546,2.833-1.546,5.268v16.372c0,0.799-0.278,1.477-0.844,2.038
		c-0.561,0.561-1.239,0.844-2.038,0.844h-7.237c-0.796,0-1.485-0.283-2.071-0.844c-0.585-0.562-0.88-1.239-0.88-2.038v-32.11
		c0-0.795,0.295-1.485,0.88-2.074c0.586-0.586,1.275-0.876,2.071-0.876h4.359c0.888,0,1.59,0.443,2.106,1.332v0.072
		c0.376,0.654,0.9,1.065,1.583,1.227c0.678,0.166,1.319,0.037,1.929-0.383c2.155-1.595,4.944-2.39,8.363-2.39h0.493
		c0.844,0,1.546,0.278,2.106,0.844c0.562,0.561,0.844,1.239,0.844,2.038V24.662z"/>
	<path d="M378.062,42.297c1.356,0,2.503,0.473,3.443,1.409c0.937,0.937,1.404,2.059,1.404,3.37v1.897
		c0,1.312-0.468,2.438-1.404,3.374c-0.94,0.937-2.087,1.405-3.443,1.405h-4.146c-4.218,0-7.52-1.207-9.909-3.621
		c-2.39-2.409-3.585-5.724-3.585-9.941V27.754c0-0.517-0.186-0.948-0.561-1.3c-0.375-0.351-0.819-0.549-1.336-0.598
		c-1.122,0-2.071-0.387-2.846-1.158c-0.771-0.774-1.158-1.724-1.158-2.846v-1.97c0-1.122,0.387-2.083,1.158-2.878
		c0.774-0.799,1.724-1.194,2.846-1.194h0.351c0.937,0,1.769-0.283,2.495-0.844c0.727-0.562,1.207-1.313,1.44-2.248l0.634-2.673
		c0.234-0.937,0.715-1.687,1.441-2.248c0.723-0.562,1.554-0.844,2.494-0.844h2.034c1.127,0,2.087,0.399,2.883,1.195
		c0.795,0.799,1.194,1.735,1.194,2.813v3.37c0,0.282,0.081,0.561,0.246,0.844c0.166,0.282,0.412,0.468,0.738,0.561
		c0.187,0.049,0.376,0.073,0.562,0.073h2.882c1.122,0,2.083,0.396,2.882,1.194c0.796,0.795,1.191,1.756,1.191,2.878v2.111
		c0,1.078-0.384,1.99-1.159,2.736c-0.771,0.751-1.699,1.126-2.772,1.126h-2.741c-0.468,0-0.88,0.178-1.23,0.529
		c-0.352,0.351-0.549,0.759-0.598,1.227v10.329c0,2.717,1.453,4.17,4.355,4.355H378.062z"/>
</g>
</svg>
