
<svg xmlns="http://www.w3.org/2000/svg" viewBox="0 0 415.689 418.695"><defs><path id="sweatshirt-outline" d="M413.875 401.187c-.549-2.172-.442-3.364-.246-5.743.207-2.407.498-5.715.179-11.413-.425-7.708-1.008-11.89-1.433-14.94-.213-1.488-.375-2.664-.476-3.896a4.435 4.435 0 01-.012-.694 5.75 5.75 0 01.252-.219c.655-.548 1.752-1.472 2.457-3.129 1.428-3.336 1.243-4.908.649-10.131l-.134-1.17c-.672-5.844-.672-6.493-.879-23.124l-.006-.106c-.101-8.149.067-9.807.325-12.314.279-2.703.66-6.403.935-18.689.498-21.977-1.752-37.387-3.733-50.982-.235-1.618-.471-3.219-.694-4.797-1.165-8.156-1.977-12.662-2.844-17.426-.694-3.89-1.422-7.909-2.385-14.206-1.377-9.113-2.978-14.565-5.391-22.815-1.326-4.551-2.994-10.21-5.004-17.884-3.661-13.955-5.838-21.187-9.124-32.13a2778.34 2778.34 0 01-6.37-21.416c-5.726-19.603-10.663-32.046-17.369-45.363a3.835 3.835 0 00-.224-.677c-7.489-17.448-14.061-21.668-19.86-25.391-1.433-.918-2.787-1.786-4.086-2.821-6.583-5.25-20.414-12.085-32.622-18.119l-3.393-1.679c-11.111-5.508-15.763-6.331-17.291-6.42-2.687-.325-5.697-.991-6.89-1.511-1.299-2.648-3.678-3.521-6.616-4.601a170.95 170.95 0 01-2.083-.778c-1.679-.655-1.97-.952-2.676-1.679-.812-.839-1.925-1.993-4.433-3.543-5.43-3.325-10.518.101-14.229 2.603-1.231.829-2.396 1.612-3.487 2.155a75.32 75.32 0 00-2.099 1.069c-2.799 1.456-4.081 2.122-13.96 4.579-11.564 2.877-19.928 1.578-30.513-.056l-.075-.011c-8.987-1.394-13.333-3.683-19.902-7.148-.783-.42-1.598-.845-2.452-1.293-1.738-.901-3.232-1.584-4.556-2.083v-.015l-.011.006c-4.649-1.752-7.115-1.192-9.837.509-.148.089-.292.179-.445.269-.381.224-.764.454-1.159.694-1.799 1.091-3.669 2.216-6.129 3.095-2.883 1.036-3.918 2.659-4.48 4.17a150.758 150.758 0 01-5.074 1.953c-.652.224-6.784 2.334-13.166 5.743-1.461.778-2.762 1.522-4.016 2.239-4.347 2.474-7.781 4.433-14.641 6.286-10.123 2.743-23.02 9.991-31.36 17.638a84.015 84.015 0 00-18.472 24.489c-.098.134-.196.28-.277.431-4.534 8.62-6.728 14.8-8.327 19.306-.666 1.864-1.24 3.476-1.799 4.747-.644 1.433-1.486 2.86-2.374 4.366-1.766 2.989-3.772 6.381-4.467 10.563-.361 2.177-.543 4.114-.705 5.827-.229 2.457-.412 4.394-.985 5.687-.4.923-1.243 2.558-2.211 4.444-2.007 3.901-4.506 8.754-6.07 12.857-.277.722-.518 1.343-.733 1.909-1.635 4.221-2.023 5.229-5.572 17.509-2.133 7.383-4.344 12.578-6.913 18.595-2.133 4.998-4.545 10.663-7.335 18.572-5.578 15.791-5.978 30.513-6.328 43.498-.053 1.809-.098 3.6-.163 5.374-.515 14.794-1.226 21.063-3.42 34.939-1.377 8.688-1.192 10.255-.694 12.712.235 1.131.515 2.536.448 6.88l-.037 1.763c-.176 10.837-.367 22.038-2.085 35.354-1.061 8.167-1.089 9.868-1.12 11.234-.017.828-.028 1.427-.487 4.517-.881 5.979.129 9.001 3.594 10.72.283 1.164.235 4.03-.137 8.536-.221 2.788-.47 4.87-.75 7.282a355.39 355.39 0 00-1.072 10.266c-.263 3.006-.395 5.643-.515 7.972-.229 4.59-.42 8.211-1.456 12.331-.683 2.703-.355 4.909.974 6.561 2.337 2.904 6.258 2.771 12.191 2.569 2.729-.09 5.816-.19 9.381-.057 10.014.392 15.105 1.12 20.991 1.965 1.853.269 3.767.543 5.922.817 1.789.229 3.397.375 4.836.375 2.706 0 4.802-.515 6.345-1.959 2.334-2.184 2.138-5.329 1.995-7.624-.17-2.866.546-9.969 1.377-18.197.423-4.221.904-9.007 1.357-14.044.515-5.743.596-8.396.641-9.818.011-.342.022-.694.042-.868.045-.117.137-.324.224-.515.28-.644.702-1.612 1.357-3.297 2.544-6.594 1.634-10.563.893-13.753-.21-.952-.4-1.764-.467-2.553-.224-2.485-.213-2.553.4-6.297.229-1.411.538-3.331.94-6.007.722-4.858 1.111-5.95 1.657-7.455.56-1.551 1.254-3.482 2.365-8.789 2.242-10.713 2.603-13.405 4.582-28.346l.104-.756c1.478-11.194 2.155-25.166 2.642-35.37.202-4.17.373-7.77.56-10.501.109-1.528.38-5.446.747-6.571.115-.073.269-.168.406-.247.35-.212.792-.47 1.296-.816 3.703-2.53 3.658-5.911 3.627-8.38-.017-.896-.028-1.808.098-2.793.252-.672 1.713-2.424 2.894-3.835 2.919-3.504 7.251-8.692 11.156-16.697.257 1.333.487 2.631.607 3.801.081.856.092 1.556.028 2.435l-.263 3a87.26 87.26 0 00-.207 3.185 143.843 143.843 0 00-.109 3.157 66.168 66.168 0 00.163 6.471c.165 2.116.35 4.053.451 6.034l.146 3c.039 1.063.104 2.094.165 3.13.258 4.103.532 8.127.705 12.146.171 4.013.252 8.021.171 11.989-.078 3.969-.319 7.915-.842 11.761-.126.963-.28 1.914-.439 2.86-.092.47-.173.94-.277 1.405l-.303 1.438c-.464 2.149-.803 4.237-1.094 6.331-.579 4.175-.946 8.34-1.159 12.538a128.963 128.963 0 00-.143 6.325c.011 1.063.028 2.127.067 3.201l.059 1.501c.022.486.022.968.034 1.444a47.971 47.971 0 01-.247 5.676c-.19 1.941-.431 4.097-.568 6.213-.274 4.254-.286 8.413-.241 12.555.017 1.047.039 2.094.087 3.18.056 1.092.104 2.184.296 3.487.104.644.26 1.36.425 1.954.154.56.274.968.367 1.365.207.801.333 1.646.487 2.637a44.18 44.18 0 00.63 3.325c.255 1.091.54 2.138.787 3.072.493 1.87.755 3.358.814 5.155.039.868.017 1.797-.017 2.727-.042.963-.098 2.088-.109 3.18-.017 1.103 0 2.328.17 3.638.087.644.202 1.249.3 1.764l.28 1.449c.333 1.837.563 3.745.739 5.716.19 2.004.409 4.119.552 6 .033.471.056.907.062 1.305.005.397 0 .744-.034 1.103-.056.699-.229 1.601-.417 2.575l-.596 2.994-.3 1.522-.291 1.59a29.25 29.25 0 00-.414 3.577c-.011.677-.028 1.354.076 2.172.104.8.274 1.718.733 2.726.448 1.008 1.263 2.043 2.15 2.726.898.694 1.777 1.086 2.521 1.355 1.498.515 2.642.677 3.731.861l3.039.459c.985.151 1.845.313 2.986.504 1.072.18 2.211.33 3.398.426.585.05 1.204.056 1.805.078.596-.011 1.212-.006 1.794-.051 2.362-.14 4.473-.498 6.524-.828l6.054-1.052c4-.688 7.996-1.354 12.001-1.971l6.012-.907 2.97-.397a57.73 57.73 0 012.958-.357c3.943-.471 7.825-.706 11.589-.594.946.022 1.881.117 2.827.168.946.112 1.875.19 2.844.336.957.14 1.92.269 2.916.442l3.015.498c4.083.688 8.313 1.22 12.485 1.551l3.134.229 3.124.146c2.094.123 4.156.123 6.238.179l12.242.162 6.106.09c2.049.028 4.092.073 6.259.045a89.066 89.066 0 003.224-.112l3.084-.19 6.102-.386 6.096-.358c2.032-.123 4.063-.229 6.057-.319a222.25 222.25 0 0112.013-.291c3.974.017 7.893.196 11.737.655 1.932.213 3.846.531 5.827.873 1.971.342 4.041.722 6.169 1.019 1.052.162 2.127.274 3.19.397 1.069.101 2.149.19 3.207.269 2.127.123 4.221.252 6.655.118.616-.04 1.266-.096 2.026-.235.381-.073.801-.162 1.282-.319a6.961 6.961 0 001.741-.84 5.457 5.457 0 001.074-.94c.364-.402.694-.906.918-1.433.471-1.086.492-2.049.459-2.709a9.361 9.361 0 00-.235-1.478c-.101-.375-.179-.649-.246-.896-.14-.48-.224-.806-.269-1.041l-.022-.156-.028-.28-.066-.767c-.051-.504-.096-.969-.096-1.248-.011-.285 0-.453.045-.807.051-.33.14-.771.235-1.226l.319-1.433.688-2.973c.477-2.049.93-4.36 1.053-6.745.146-2.396-.039-4.612-.179-6.649-.151-2.049-.297-4.024-.392-6.018a188.15 188.15 0 01-.219-5.995 164.01 164.01 0 01-.062-5.95c.022-.935.056-1.897.14-2.647.017-.201.051-.33.073-.504.022-.134.056-.252.078-.347.045-.18.073-.235.258-.594.168-.324.498-.906.767-1.472.285-.577.531-1.147.744-1.719a27.522 27.522 0 001.063-3.431c1.081-4.546 1.271-8.884 1.288-13.16 0-2.127-.09-4.237-.202-6.337a42.123 42.123 0 01.079-5.563c.285-3.768.984-7.803 1.482-11.968.51-4.153.817-8.401.879-12.611.084-4.215-.056-8.413-.347-12.577a178.082 178.082 0 00-.532-6.23l-.273-2.973c-.034-.492-.09-.979-.118-1.466l-.078-1.467a83.224 83.224 0 01.162-11.698c.308-3.913.862-7.915 1.327-12.029.481-4.109.834-8.29 1.024-12.461.218-4.176.185-8.34.134-12.499-.067-4.03-.111-8.049 0-12.057.051-2.239.146-4.479.258-6.717.279.257.56.509.84.761 2.787 2.536 5.676 5.155 7.399 8.99 2.497 5.535 2.53 6.017 2.715 8.055.095 1.181.241 2.804.722 5.58 1.333 7.613 1.741 8.777 4.059 11.408.151.179.319.369.504.582l.006.006c.022.402-.102 1.394-.219 2.278-.297 2.356-.75 5.922-.654 11.737.044 3.577 0 5.536-.04 6.969-.089 3.678-.027 4.03 1.618 13.076l.011.084c1.483 8.178 1.512 11.117 1.545 16.983.022 3.196.045 7.17.319 13.171.28 6.274.28 9.034.285 10.859 0 3.386 0 4.192 1.366 15.773 1.315 11.128 1.075 13.244.817 15.488-.168 1.444-.358 3.096-.213 6.521.235 5.653 1.125 7.366 2.547 9.684.756 1.22 1.69 2.754 2.894 6.432.286.873.538 1.629.756 2.301 1.517 4.601 1.517 4.601 1.954 8.563.162 1.512.392 3.577.761 6.555.94 7.529.616 11.357.297 15.063-.196 2.312-.386 4.489-.252 7.293.106 2.273.515 5.111 2.737 6.874 1.293 1.024 2.748 1.366 4.35 1.366 1.478 0 3.09-.297 4.813-.61 1.293-.241 2.76-.51 4.411-.717l1.343-.173c7.12-.918 8.038-1.036 18.875-1.439 7.423-.279 9.874.163 12.478.627 1.404.258 2.854.516 4.965.672 3.442.269 5.346-1.092 6.342-2.278 2.67-3.196 1.461-7.853.285-12.354l-.285-1.115" fill="#fff"/></defs></svg> 


